Coordinates
version=1
nRows=8
nColumns=40
inDegrees=yes

Units are S.I. units (second, meters, Newtons, ...)
Angles are in degrees.

endheader
time	pelvis_tilt	pelvis_list	pelvis_rotation	pelvis_tx	pelvis_ty	pelvis_tz	hip_flexion_r	hip_adduction_r	hip_rotation_r	knee_angle_r	knee_angle_r_beta	ankle_angle_r	subtalar_angle_r	mtp_angle_r	hip_flexion_l	hip_adduction_l	hip_rotation_l	knee_angle_l	knee_angle_l_beta	ankle_angle_l	subtalar_angle_l	mtp_angle_l	lumbar_extension	lumbar_bending	lumbar_rotation	arm_flex_r	arm_add_r	arm_rot_r	elbow_flex_r	pro_sup_r	wrist_flex_r	wrist_dev_r	arm_flex_l	arm_add_l	arm_rot_l	elbow_flex_l	pro_sup_l	wrist_flex_l	wrist_dev_l
      7.73142857	     -4.38065547	     -3.85131359	     -1.16044376	      0.97974896	      0.92328061	      0.46495742	     30.35861263	     -3.89158964	    -15.19341887	     12.76352814	     12.76352814	      2.44670844	      5.21971796	     11.31832719	      1.64891983	     -4.11104050	     -7.00692265	     14.30049658	     14.30049658	     17.73245452	     -7.06025396	     -4.75999071	    -12.80980216	      5.69542475	      2.97248287	    -15.16546911	    -11.91060823	     -6.20046184	     24.62219190	     46.70612403	      0.00000000	      0.00000000	     17.73462417	    -15.83235607	    -12.08172269	    101.66632890	     48.54223902	      0.00000000	      0.00000000
      7.74285714	     -4.48322340	     -3.71605125	     -0.90349313	      0.98198705	      0.92141123	      0.46646910	     29.78090208	     -3.81265785	    -15.69164858	     12.72974590	     12.72974590	      2.48670079	      5.09781502	     11.26005207	      1.01415278	     -4.07353948	     -6.82429969	     14.20752419	     14.20752419	     18.20287773	     -6.89069632	     -4.86324457	    -12.17661017	      5.61735834	      2.70782849	    -16.49900290	    -11.67586018	     -6.20308069	     24.42911410	     46.69931100	      0.00000000	      0.00000000	     18.08889493	    -16.12783834	    -12.23932416	    102.49003239	     48.57306342	      0.00000000	      0.00000000
      7.75428571	     -4.33615013	     -3.64144660	     -0.81890119	      0.98454336	      0.91991833	      0.46843264	     28.77162602	     -3.61248216	    -16.48637778	     12.65645878	     12.65645878	      1.58395404	      5.63939988	      8.60093645	     -0.01196327	     -4.18464317	     -7.27621850	     14.05093225	     14.05093225	     19.27559087	     -5.72177431	     -3.95232081	    -12.14742567	      5.44522498	      2.66878367	    -18.66580497	    -11.59077317	     -6.21735677	     27.55757194	     46.51553852	      0.00000000	      0.00000000	     17.54590124	    -16.48396122	    -12.11542439	    106.85350225	     48.68297291	      0.00000000	      0.00000000
      7.76571429	     -4.34770208	     -3.59937355	     -0.72417534	      0.98696482	      0.91834090	      0.47058530	     28.07925408	     -3.36722785	    -16.67087951	     13.04043767	     13.04043767	      1.06269633	      5.40179014	      7.26324689	     -0.81610423	     -4.30705668	     -7.39812171	     13.91042006	     13.91042006	     19.85499365	     -5.28109673	     -3.62911211	    -11.75558565	      5.34360277	      3.02905207	    -19.94677285	    -11.28379357	     -5.94500175	     27.68155290	     46.46980491	      0.00000000	      0.00000000	     17.95502466	    -16.09829466	    -12.10953532	    108.49560773	     48.73122847	      0.00000000	      0.00000000
      7.77714286	     -4.37901477	     -3.61295887	     -0.61605136	      0.98934341	      0.91672132	      0.47298039	     27.28882997	     -3.01413212	    -16.72570476	     13.17520420	     13.17520420	     -0.81110569	      4.77121971	      2.21581903	     -1.36615492	     -4.60162152	     -7.80854613	     14.26912850	     14.26912850	     21.04685745	     -4.23756589	     -2.38725149	    -11.39273142	      5.31465607	      2.84342122	    -21.07205266	    -11.28092721	     -5.28936739	     29.00890802	     46.33129333	      0.00000000	      0.00000000	     17.65850571	    -16.47013091	    -12.26232457	    110.44600731	     48.82835050	      0.00000000	      0.00000000
      7.78857143	     -4.46759335	     -3.63534551	     -0.56469230	      0.99148891	      0.91557362	      0.47546431	     26.68213620	     -2.71929114	    -16.74665327	     13.62312261	     13.62312261	     -1.04601387	      4.70261471	      2.15531208	     -1.90470379	     -4.81888002	     -7.78445326	     14.40464993	     14.40464993	     21.32741830	     -4.34421419	     -2.45690779	    -10.88238439	      5.24810166	      2.74008625	    -21.47027913	    -11.10821652	     -5.25324423	     28.87253089	     46.33030855	      0.00000000	      0.00000000	     17.71696480	    -16.43535439	    -12.27799445	    110.68726577	     48.83579229	      0.00000000	      0.00000000
      7.80000000	     -4.39447125	     -3.71652682	     -0.49512120	      0.99347090	      0.91455017	      0.47804012	     26.10332802	     -2.37353783	    -16.36637047	     14.27154856	     14.27154856	     -2.41145674	      3.54730200	     -2.28939343	     -2.24163269	     -5.24511349	     -8.12733014	     15.31632183	     15.31632183	     22.22744273	     -3.65660070	     -1.48070254	    -10.82594145	      5.28852543	      2.80925387	    -21.68030999	    -11.05052084	     -4.39737499	     28.80299094	     46.25218891	      0.00000000	      0.00000000	     17.22439920	    -16.26063994	    -12.63678612	    113.13009406	     48.97452145	      0.00000000	      0.00000000
      7.81142857	     -4.57289358	     -3.66878812	     -0.44189631	      0.99509806	      0.91423882	      0.48048225	     25.61522682	     -2.19899065	    -16.25740725	     14.51825139	     14.51825139	     -2.53573087	      3.59975692	     -2.28821770	     -2.57960918	     -5.39630553	     -8.05829665	     15.51552024	     15.51552024	     22.10545773	     -3.66766876	     -1.45531119	    -10.37017884	      5.22145687	      2.89836206	    -21.62968149	    -11.02128543	     -4.39237142	     28.82205200	     46.25136289	      0.00000000	      0.00000000	     17.19837560	    -16.25498828	    -12.64230484	    113.19189212	     48.97631797	      0.00000000	      0.00000000
